<svg width="987" height="601" viewBox="0 0 987 601" fill="none" xmlns="http://www.w3.org/2000/svg">
<rect width="987" height="601" fill="black"/>
<path d="M262.621 308.07H330.189V336H228.354V308.93L245.541 290.668C265.951 268.969 278.34 255.613 282.709 250.6C288.08 244.441 291.947 238.998 294.311 234.271C296.674 229.473 297.855 224.747 297.855 220.092C297.855 212.93 295.671 207.416 291.303 203.549C287.006 199.61 280.883 197.641 272.934 197.641C267.276 197.641 260.902 198.786 253.812 201.078C246.794 203.298 239.454 206.557 231.791 210.854V181.312C239.454 178.52 246.938 176.407 254.242 174.975C261.618 173.471 268.673 172.719 275.404 172.719C292.377 172.719 305.697 176.693 315.365 184.643C325.105 192.52 329.975 203.298 329.975 216.977C329.975 223.279 328.9 229.187 326.752 234.701C324.675 240.215 321.059 246.339 315.902 253.07C312.107 257.94 301.687 268.897 284.643 285.941C275.404 295.18 268.064 302.556 262.621 308.07ZM368.754 308.07H404.203V203.979L371.225 212.143V183.568L404.418 175.619H435.033V308.07H470.482V336H368.754V308.07ZM599.496 330.092C592.191 333.1 584.743 335.355 577.152 336.859C569.561 338.363 561.54 339.115 553.09 339.115C532.966 339.115 517.569 333.744 506.898 323.002C496.299 312.188 491 296.648 491 276.381C491 256.758 496.12 241.254 506.361 229.867C516.602 218.48 530.567 212.787 548.256 212.787C566.088 212.787 579.91 218.087 589.721 228.686C599.604 239.213 604.545 254.073 604.545 273.266V286.049H523.012C523.083 295.502 525.876 302.556 531.391 307.211C536.905 311.866 545.141 314.193 556.098 314.193C563.331 314.193 570.456 313.155 577.475 311.078C584.493 309.001 591.833 305.707 599.496 301.195V330.092ZM572.855 262.416C572.712 254.109 570.564 247.842 566.41 243.617C562.328 239.32 556.277 237.172 548.256 237.172C541.023 237.172 535.258 239.392 530.961 243.832C526.664 248.201 524.122 254.431 523.334 262.523L572.855 262.416ZM679.848 264.457C672.758 264.457 667.029 266.713 662.66 271.225C658.292 275.665 656.107 281.573 656.107 288.949C656.107 296.326 658.292 302.27 662.66 306.781C667.029 311.293 672.758 313.549 679.848 313.549C686.938 313.549 692.667 311.257 697.035 306.674C701.475 302.09 703.695 296.182 703.695 288.949C703.695 281.573 701.511 275.665 697.143 271.225C692.774 266.713 687.009 264.457 679.848 264.457ZM656.322 251.029C648.23 248.236 642.071 243.868 637.846 237.924C633.62 231.908 631.508 224.568 631.508 215.902C631.508 202.582 635.84 192.055 644.506 184.32C653.171 176.586 664.952 172.719 679.848 172.719C694.815 172.719 706.632 176.586 715.297 184.32C723.962 192.055 728.295 202.582 728.295 215.902C728.295 224.496 726.218 231.801 722.064 237.816C717.911 243.76 711.859 248.165 703.91 251.029C712.79 253.751 719.737 258.62 724.75 265.639C729.763 272.657 732.27 281.072 732.27 290.883C732.27 306.28 727.722 318.168 718.627 326.547C709.532 334.926 696.605 339.115 679.848 339.115C663.161 339.115 650.271 334.926 641.176 326.547C632.081 318.168 627.533 306.28 627.533 290.883C627.533 281 630.076 272.549 635.16 265.531C640.245 258.513 647.299 253.679 656.322 251.029ZM659.652 218.48C659.652 224.783 661.443 229.796 665.023 233.52C668.676 237.172 673.617 238.998 679.848 238.998C686.15 238.998 691.091 237.172 694.672 233.52C698.324 229.796 700.15 224.783 700.15 218.48C700.15 212.25 698.324 207.344 694.672 203.764C691.091 200.111 686.15 198.285 679.848 198.285C673.689 198.285 668.783 200.111 665.131 203.764C661.479 207.416 659.652 212.322 659.652 218.48Z" fill="white"/>
<line x1="208.888" y1="397.045" x2="749.888" y2="393" stroke="#FFC400" stroke-width="30"/>
</svg>
